<?xml version="1.0" standalone="no"?>
<!DOCTYPE svg PUBLIC "-//W3C//DTD SVG 20010904//EN"
 "http://www.w3.org/TR/2001/REC-SVG-20010904/DTD/svg10.dtd">
<svg version="1.0" xmlns="http://www.w3.org/2000/svg"
 width="1280.000000pt" height="1204.000000pt" viewBox="0 0 1280.000000 1204.000000"
 preserveAspectRatio="xMidYMid meet">
<g transform="translate(0.000000,1204.000000) scale(0.100000,-0.100000)"
fill="#000000" stroke="none">
<path d="M1840 12034 c-627 -59 -1163 -372 -1500 -877 -167 -250 -271 -520
-321 -837 -21 -127 -21 -8473 0 -8600 50 -317 154 -587 321 -837 313 -470 794
-771 1380 -864 127 -21 9233 -21 9360 0 317 50 587 154 837 321 470 313 771
794 864 1380 21 127 21 8473 0 8600 -93 586 -394 1067 -864 1380 -242 162
-479 255 -806 318 -79 15 -451 17 -4661 18 -2516 0 -4591 -1 -4610 -2z m9095
-1741 c53 -28 99 -78 124 -133 l21 -45 0 -4095 0 -4095 -21 -45 c-25 -55 -71
-105 -124 -133 l-40 -22 -4495 0 -4495 0 -40 22 c-53 28 -99 78 -124 133 l-21
45 0 4095 0 4095 21 45 c33 73 95 128 169 151 14 4 2041 7 4505 6 l4480 -2 40
-22z"/>
<path d="M6115 8789 c-1288 -47 -2473 -454 -3194 -1096 -386 -344 -610 -724
-676 -1149 -23 -142 -16 -385 14 -523 80 -365 277 -694 597 -1000 685 -654
1847 -1077 3164 -1152 250 -14 769 -6 995 16 424 41 839 115 1156 205 57 17
109 30 116 30 11 0 487 -207 1688 -732 352 -154 375 -160 425 -113 32 30 42
65 30 105 -4 15 -220 307 -479 648 -259 341 -471 623 -471 626 0 4 33 27 73
53 198 126 419 317 566 488 227 263 355 512 422 820 30 135 37 389 14 529 -55
349 -211 660 -482 958 -413 453 -1058 819 -1846 1047 -342 99 -765 177 -1172
216 -151 15 -597 36 -695 33 -25 -1 -135 -5 -245 -9z"/>
</g>
</svg>
